<?xml version="1.0" encoding="utf-8"?>
<!-- Generator: Adobe Illustrator 24.3.0, SVG Export Plug-In . SVG Version: 6.00 Build 0)  -->
<svg version="1.1" id="Слой_1" xmlns="http://www.w3.org/2000/svg" xmlns:xlink="http://www.w3.org/1999/xlink" x="0px" y="0px"
	 viewBox="0 0 182 46" style="enable-background:new 0 0 182 46;" xml:space="preserve">
<style type="text/css">
	.st0{fill:none;}
	.st1{fill:#1F584C;}
	.st2{font-family:'PoorRichard-Regular';}
	.st3{font-size:11.9001px;}
	.st4{letter-spacing:1;}
</style>
<rect class="st0" width="182" height="46"/>
<g>
	<g>
		<path class="st1" d="M17.7,4.3c0,0,9.2-4.7,17.8,1.1c0,0,1.6,0.7,2.4-0.3c0,0,0.8-0.9,1.3-1v11.6h-0.8c0,0-2.8-15.6-18.9-9.6
			L17.7,4.3z"/>
		<path class="st1" d="M3.7,4.6V3.2H13c4.7,0,11.3,10.5,2.6,19.2c0,0,4.9,2.6,4.5,6.6v7.7c0,0,7.4,7.4,13,0c0,0,5.3-8.8-4.7-9.1
			v-1.4h16.9v1.3c0,0-3.6-0.5-4.6,2c-0.7,1.6-0.5,4.5-0.5,7.9h-2c-5.4,7.6-17.2,8.3-23,0.8v-9.1c0,0,0-5.7-11.4-4.7V23h6
			c6.6-0.9,9.3-17.2,0-18.3L3.7,4.6z"/>
	</g>
	<text transform="matrix(1 0 0 1 47.2544 34.8429)" class="st2 st3 st4">RAFIG JEWELLERY</text>
</g>
</svg>
